<svg width="58" height="57" viewBox="0 0 58 57" fill="none" xmlns="http://www.w3.org/2000/svg">
<path d="M25.513 33.0143C7.93417 32.8718 9.74108 35.3228 18.0232 20.1209C21.1468 14.4437 24.2533 8.76082 27.3028 3.04941C27.8671 1.98921 28.5739 1.58451 29.7367 1.59021C33.607 1.61301 37.4716 1.53891 41.3362 1.56741C43.9411 1.58451 44.3914 2.47371 43.1317 4.72521C40.5553 9.33081 38.0074 13.9535 35.4766 18.5819C34.6273 20.138 34.6615 20.1551 36.4171 20.1551C38.7655 20.5085 47.0248 19.3286 47.9938 20.9645C48.484 21.8594 47.9539 22.5206 47.4181 23.159C38.7256 33.5102 30.1129 43.9412 21.2323 54.1328C20.2063 55.4723 17.9662 54.2183 18.7528 52.685C20.896 46.0787 23.4667 39.6491 25.513 33.0143ZM40.2931 4.32622C37.3975 4.32622 34.7356 4.44591 32.0908 4.28631C30.3238 4.17801 29.3377 4.85061 28.534 6.34971C24.3958 14.1074 20.0581 21.7568 15.9712 29.543C15.2017 30.7514 16.7749 30.4265 17.5159 30.4721C33.8122 30.4265 28.9216 28.4201 22.6915 48.6665C30.0388 39.8771 37.141 31.3784 44.3686 22.7258C24.7207 22.4009 29.7196 25.7753 40.2931 4.32622Z" fill="#7FBB27"/>
</svg>
