<svg width="58" height="57" viewBox="0 0 58 57" fill="none" xmlns="http://www.w3.org/2000/svg">
<path d="M45.9132 26.6932C47.6004 27.7933 47.8113 28.4089 46.6884 29.9194C39.3981 39.4327 27.5706 48.2449 14.985 45.7141C12.9444 44.899 8.31596 56.47 5.97326 54.4465C5.00426 53.7682 5.52296 52.879 6.03596 52.1893C8.05946 49.4761 10.1115 46.7743 12.2034 44.1067C12.762 43.3942 12.99 42.7786 12.8475 41.8039C11.9469 35.5909 13.446 29.8453 16.7349 24.607C24.1962 12.7795 35.9097 4.3207 49.8006 1.9609C56.0592 1.3453 51.8355 19.1464 50.5815 22.5265C49.4643 25.8952 48.4326 25.3081 45.9132 26.6932ZM15.1104 40.0369C22.7256 31.2418 30.6999 22.2301 39.3069 14.1475C40.008 13.5433 41.0397 12.3976 41.9118 13.321C43.1031 14.3413 41.5926 15.4813 40.8687 16.2565C32.5182 24.9433 22.7541 33.2824 16.2675 43.4056C27.0747 44.9218 36.9243 37.5916 43.6674 29.8624C45.2349 28.483 39.1302 28.6825 38.3607 28.2835C36.5253 28.198 36.2973 25.8895 38.2068 25.6672C40.6122 24.6583 46.905 24.5728 47.8797 22.327C49.8918 17.1742 50.7753 11.839 50.3649 6.3214C50.2224 4.3834 50.0628 4.3321 48.1305 4.7824C32.2218 8.8522 14.814 22.2529 15.1104 40.0369Z" fill="#7FBB27"/>
</svg>
