<svg width="59" height="58" viewBox="0 0 59 58" fill="none" xmlns="http://www.w3.org/2000/svg">
<path d="M49.6354 14.9153C51.1608 33.0584 37.1422 48.9101 18.3328 48.4085C15.1428 48.3059 16.3666 55.22 13.0258 54.137C12.0978 53.6924 12.1906 52.9628 12.585 52.1705C13.4376 49.9019 15.5952 47.8214 13.8552 45.4046C10.8914 40.3772 9.65023 34.928 10.2418 29.1026C12.0456 12.242 30.6404 4.80347 45.7958 3.60077C47.994 3.38417 48.226 3.58367 48.748 5.70977C49.4904 8.73647 49.6586 11.8145 49.6354 14.9153ZM23.0598 31.5251C23.1468 31.5593 23.2338 31.5878 23.3208 31.622C24.4054 29.9462 38.2268 8.85047 39.4854 14.4821C39.6014 15.1148 39.1548 15.5252 38.7778 15.9242C35.205 19.7033 31.8004 23.6249 28.7902 27.8486C31.0464 28.2362 37.2408 23.5052 38.4124 25.7225C39.8624 28.0595 28.97 30.026 27.2068 31.451C23.402 34.2725 21.285 40.6565 18.878 44.7833C18.5474 45.473 18.675 45.6611 19.4464 45.6668C41.3878 45.1937 49.8036 26.8967 46.5614 7.56797C46.631 4.67807 37.525 7.76177 35.6574 7.94987C18.3444 11.4782 6.18183 28.0709 16.1288 44.4242C17.6078 41.1866 19.8118 38.0972 20.7398 34.7057C20.4614 32.5226 20.6006 30.3338 20.5774 28.145C20.6006 26.6687 20.0206 21.2879 22.8278 23.4596C23.402 26.0588 22.8974 28.8632 23.0598 31.5251Z" fill="#7FBB27"/>
</svg>
