<svg width="58" height="57" viewBox="0 0 58 57" fill="none" xmlns="http://www.w3.org/2000/svg">
<path d="M44.4827 30.7742C44.3801 58.3223 48.1136 53.198 21.0557 53.5913C17.3507 53.5685 15.5666 51.8186 15.5552 48.1478C15.521 36.2576 15.521 24.3674 15.5381 12.4715C15.5438 9.45053 17.4704 7.58663 20.4515 7.58663C25.6214 8.26493 21.4604 3.68213 25.0343 3.27743C28.4714 3.27173 31.9028 3.28313 35.3399 3.27173C38.0987 3.38003 36.1607 6.49223 37.2836 7.41563C41.0912 7.92863 44.1977 6.96533 44.4713 12.4886C44.5169 18.5819 44.477 24.6752 44.4827 30.7742ZM42.1172 30.5918C42.1058 30.5918 42.1001 30.5918 42.0887 30.5918C42.0887 24.8348 42.0887 19.0835 42.0887 13.3265C42.0887 10.7159 41.5586 10.1402 38.9366 10.106C32.9231 10.0604 26.9153 10.0718 20.9018 10.1003C18.9296 10.1231 18.1031 10.9667 18.0518 12.9332C18.0119 24.698 18.0461 36.4685 18.0518 48.2333C18.0518 50.291 18.884 51.2201 20.7422 51.2258C46.6031 50.4791 41.7239 57.0626 42.1172 30.5918ZM30.0218 7.58663C31.1561 7.27313 34.7357 8.39033 34.6502 6.73163C34.616 6.13883 34.6046 5.60303 33.7952 5.60873C31.3613 5.60873 28.9217 5.59163 26.4878 5.59163C25.6271 5.59163 25.7696 6.23003 25.7297 6.78293C25.7126 8.36183 28.9331 7.29023 30.0218 7.58663Z" fill="#7FBB27"/>
<path d="M34.7242 27.1889C36.9244 27.0293 39.1588 27.5195 37.4374 30.0218C34.9921 33.9605 32.4157 37.808 29.8906 41.6954C28.8019 42.7898 28.2946 45.788 26.3623 45.1838C24.3901 45.0869 27.6733 36.3545 27.7303 34.616C28.2376 32.6438 25.2223 33.8351 24.1222 33.4988C22.4293 33.4646 21.808 32.5013 22.7086 31.0592C26.9722 24.8177 39.0277 2.79293 32.4271 25.8836C31.8229 27.7532 33.607 27.0806 34.7242 27.1889ZM29.2864 38.1443C31.1959 35.2031 32.9857 32.4443 34.918 29.4746C29.4061 29.6456 29.2066 29.657 30.13 24.242C30.0502 24.2249 29.9704 24.2135 29.8906 24.1964C28.4257 26.522 26.9665 28.8476 25.4845 31.2017C31.7431 32.0681 30.2497 30.8825 29.2864 38.1443Z" fill="#7FBB27"/>
</svg>
