<svg width="58" height="57" viewBox="0 0 58 57" fill="none" xmlns="http://www.w3.org/2000/svg">
<path d="M37.939 50.1257C37.9846 46.1927 37.8421 42.6929 37.996 39.0278C38.1043 37.7681 40.162 37.7852 40.1506 39.119C40.219 42.8126 40.1392 46.5062 40.1392 50.1998C40.3843 52.229 38.8396 54.281 36.9016 52.5824C32.7691 49.1681 28.5967 45.788 24.5782 42.2369C19.8871 36.4058 6.54913 44.8532 5.68843 35.2088C6.49783 17.6528 1.06003 16.091 21.1411 16.8377C22.0702 16.8548 22.6801 16.4159 23.3014 15.8858C27.7645 12.1238 32.0623 8.15091 36.6223 4.51431C40.6807 1.65291 40.2418 7.95141 40.1905 10.3739C40.162 14.7059 40.3045 19.055 40.1848 23.3813C39.535 25.4447 37.5058 23.9228 37.9162 22.2071C37.9105 17.5673 37.9105 12.9332 37.8991 8.29341C38.11 7.05081 37.3519 6.62331 36.5767 7.73481C32.3644 11.3315 28.1635 14.9339 23.9626 18.5477C22.777 20.0297 21.0385 18.5534 21.295 20.9759C21.3235 25.7411 21.352 30.512 21.3178 35.2772C21.3121 36.44 21.6313 37.0898 22.6915 37.8194C28.0039 41.6555 32.6323 46.244 37.939 50.1257ZM18.9865 28.5569C18.9751 28.5569 18.958 28.5569 18.9466 28.5569C18.4165 18.1316 21.8308 19.4027 10.6189 19.3799C8.84623 19.3742 8.18503 19.9727 8.17933 21.7397C8.16793 26.1572 8.17933 30.5804 8.19643 34.9979C8.20213 36.8048 8.85193 37.4432 10.7044 37.4603C21.7966 37.4147 18.4963 39.0335 18.9865 28.5569Z" fill="#7FBB27"/>
<path d="M52.2346 21.5516C52.1662 22.1159 51.6817 22.4978 51.2143 22.8683C48.0793 25.3307 44.9329 27.7817 41.7808 30.2213C40.6066 31.1276 40.5952 31.1276 41.701 32.0339C42.8524 33.4931 51.7444 38.7599 49.5784 40.202C49.0312 40.7264 48.4327 40.8347 47.7544 40.2704C36.7306 32.0567 41.017 30.4835 31.27 37.8764C30.5917 38.3894 29.902 38.4863 29.3434 37.7681C27.8842 36.2234 34.234 33.0371 35.2828 31.7888C38.851 30.3467 27.3997 26.0033 29.6284 23.6435C30.6373 21.62 36.2974 27.9356 37.6483 28.7792C38.4976 29.5658 38.9821 29.4518 39.7744 28.802C42.7612 26.3567 45.7879 23.9684 48.8146 21.5687C49.7665 20.6567 52.0693 19.2944 52.2346 21.5516Z" fill="#7FBB27"/>
</svg>
