<svg width="55" height="53" viewBox="0 0 55 53" fill="none" xmlns="http://www.w3.org/2000/svg">
<path d="M7.38283 12.2288C8.97005 12.1952 11.7085 10.56 12.5747 12.2064C12.8538 13.0408 12.3073 13.5224 11.6271 13.7744C9.32471 14.62 6.90608 14.9952 4.48163 15.3312C2.15603 15.684 2.70836 9.03121 2.11533 7.39041C2.01649 6.58961 2.15022 5.77201 3.22581 5.72721C5.43513 5.90081 4.52233 9.10961 5.09211 10.7448C12.5806 1.38721 23.5574 -2.16879 35.1854 1.30881C65.0753 9.73121 57.6624 53.4896 26.4644 52.6104C10.9352 52.5768 -2.71611 37.5408 0.464151 21.8384C0.487407 19.1392 3.91768 19.6488 3.03976 22.2584C-2.06494 53.5736 46.0576 61.0272 51.6217 29.6336C55.8426 6.42161 21.1446 -7.85279 7.38283 12.2288Z" fill="#7FBB27"/>
<path d="M26.6154 43.6728C3.47567 43.1576 4.47568 9.16 27.5689 9.5296C50.4413 9.9608 49.3134 44.0312 26.6154 43.6728ZM12.0048 26.6992C12.0281 46.036 42.1563 45.308 42.0575 26.2456C41.6389 7.1664 11.7955 8.1128 12.0048 26.6992Z" fill="#7FBB27"/>
<path d="M29.7376 29.0513H19.2841C18.9468 29.0513 18.6736 28.7881 18.6736 28.4633V27.3825C18.6736 27.0577 18.9468 26.7945 19.2841 26.7945H29.7318C30.7551 26.7945 31.5981 26.6209 32.2609 26.2793C32.9295 25.9321 33.4237 25.4617 33.7493 24.8681C34.0749 24.2689 34.2377 23.5913 34.2377 22.8241C34.2377 22.0569 34.0749 21.3793 33.7493 20.7801C33.4237 20.1809 32.9295 19.7105 32.2609 19.3689C31.5923 19.0217 30.7493 18.8537 29.7318 18.8537H25.3655C25.0283 18.8537 24.755 19.1169 24.755 19.4417V36.9865C24.755 37.3113 24.4818 37.5745 24.1446 37.5745H22.7318C22.3946 37.5745 22.1213 37.3113 22.1213 36.9865V17.1849C22.1213 16.8601 22.3946 16.5969 22.7318 16.5969H29.7376C31.3539 16.5969 32.6854 16.8825 33.7377 17.4481C34.7842 18.0137 35.5691 18.7697 36.0749 19.7105C36.5866 20.6513 36.8424 21.6929 36.8424 22.8241C36.8424 23.9553 36.5866 24.9969 36.0749 25.9377C35.5633 26.8785 34.7842 27.6345 33.7377 28.2001C32.6854 28.7713 31.3539 29.0513 29.7376 29.0513ZM29.5632 31.6049V32.6857C29.5632 33.0105 29.29 33.2737 28.9528 33.2737H19.2841C18.9468 33.2737 18.6736 33.0105 18.6736 32.6857V31.6049C18.6736 31.2801 18.9468 31.0169 19.2841 31.0169H28.9528C29.29 31.0169 29.5632 31.2801 29.5632 31.6049Z" fill="#7FBB27"/>
</svg>
