<svg width="33" height="32" viewBox="0 0 33 32" fill="none" xmlns="http://www.w3.org/2000/svg">
<rect width="33" height="32" rx="4" fill="#2E2E2E"/>
<path d="M14.125 7C14.2825 7 14.4335 7.06256 14.5448 7.17391C14.6562 7.28526 14.7188 7.43628 14.7188 7.59375V10.5625H18.2812V7.59375C18.2812 7.43628 18.3438 7.28526 18.4552 7.17391C18.5665 7.06256 18.7175 7 18.875 7C19.0325 7 19.1835 7.06256 19.2948 7.17391C19.4062 7.28526 19.4688 7.43628 19.4688 7.59375V10.5625H20.6562C20.8137 10.5625 20.9647 10.6251 21.0761 10.7364C21.1874 10.8478 21.25 10.9988 21.25 11.1562V14.7188C21.25 15.8211 20.8121 16.8782 20.0327 17.6577C19.2532 18.4371 18.1961 18.875 17.0938 18.875C17.0914 19.3904 17.0819 19.8784 17.0462 20.3238C16.9976 20.9341 16.8966 21.5148 16.6698 22.0148C16.4399 22.5435 16.0324 22.9753 15.5179 23.2355C14.9859 23.5063 14.3257 23.625 13.5312 23.625C12.3461 23.625 11.6194 24.0169 11.1871 24.4776C10.7969 24.8898 10.5742 25.4325 10.5625 26H9.375C9.375 25.2685 9.6505 24.3767 10.3214 23.663C11.0066 22.9362 12.0599 22.4375 13.5312 22.4375C14.2212 22.4375 14.6736 22.333 14.9776 22.1774C15.2638 22.0314 15.4526 21.8212 15.588 21.5243C15.7317 21.2084 15.8172 20.7869 15.8611 20.2299C15.8932 19.8262 15.9027 19.3773 15.9051 18.875C14.803 18.8747 13.7461 18.4367 12.9669 17.6572C12.1877 16.8778 11.75 15.8209 11.75 14.7188V11.1562C11.75 10.9988 11.8126 10.8478 11.9239 10.7364C12.0353 10.6251 12.1863 10.5625 12.3438 10.5625H13.5312V7.59375C13.5312 7.43628 13.5938 7.28526 13.7052 7.17391C13.8165 7.06256 13.9675 7 14.125 7V7ZM12.9375 11.75V14.7188C12.9375 15.5061 13.2503 16.2612 13.807 16.818C14.3638 17.3747 15.1189 17.6875 15.9062 17.6875H17.0938C17.8811 17.6875 18.6362 17.3747 19.193 16.818C19.7497 16.2612 20.0625 15.5061 20.0625 14.7188V11.75H12.9375Z" fill="white"/>
</svg>
