<svg width="33" height="32" viewBox="0 0 33 32" fill="none" xmlns="http://www.w3.org/2000/svg">
<rect width="33" height="32" rx="4" fill="#2E2E2E"/>
<g clip-path="url(#clip0_42_2362)">
<path d="M14 22.75L14 17.125L18 17.125L18 22.75L14 22.75Z" fill="white"/>
<path d="M12 22.75C12 23.3467 12.2107 23.919 12.5858 24.341C12.9609 24.7629 13.4696 25 14 25L18 25C18.5304 25 19.0391 24.7629 19.4142 24.341C19.7893 23.919 20 23.3467 20 22.75L20 11.5C20 10.9033 19.7893 10.331 19.4142 9.90901C19.0391 9.48705 18.5304 9.25 18 9.25L14 9.25C13.4696 9.25 12.9609 9.48705 12.5858 9.90901C12.2107 10.331 12 10.9033 12 11.5L12 22.75ZM13 11.5C13 11.2016 13.1054 10.9155 13.2929 10.7045C13.4804 10.4935 13.7348 10.375 14 10.375L18 10.375C18.2652 10.375 18.5196 10.4935 18.7071 10.7045C18.8946 10.9155 19 11.2016 19 11.5L19 22.75C19 23.0484 18.8946 23.3345 18.7071 23.5455C18.5196 23.7565 18.2652 23.875 18 23.875L14 23.875C13.7348 23.875 13.4804 23.7565 13.2929 23.5455C13.1054 23.3345 13 23.0484 13 22.75L13 11.5ZM16 7C16.3978 7 16.7794 7.17779 17.0607 7.49426C17.342 7.81072 17.5 8.23995 17.5 8.6875L14.5 8.6875C14.5 8.23995 14.658 7.81072 14.9393 7.49426C15.2206 7.17779 15.6022 7 16 7Z" fill="white"/>
</g>
<defs>
<clipPath id="clip0_42_2362">
<rect width="18" height="16" fill="white" transform="translate(8 25) rotate(-90)"/>
</clipPath>
</defs>
</svg>
