<svg width="23" height="23" viewBox="0 0 23 23" fill="none" xmlns="http://www.w3.org/2000/svg">
<path d="M7.66699 17.3662C8.34755 17.3662 9.00014 17.6371 9.48145 18.1182C9.9628 18.5995 10.2334 19.2529 10.2334 19.9336C10.2333 20.6142 9.96274 21.2668 9.48145 21.748C9.00012 22.2293 8.34765 22.5 7.66699 22.5C6.98624 22.5 6.33292 22.2294 5.85156 21.748C5.37044 21.2668 5.10066 20.6141 5.10059 19.9336C5.10059 19.2529 5.37023 18.5995 5.85156 18.1182C6.33292 17.6368 6.98624 17.3662 7.66699 17.3662ZM18.4004 17.3662C19.0811 17.3662 19.7345 17.6368 20.2158 18.1182C20.6972 18.5995 20.9678 19.2529 20.9678 19.9336C20.9677 20.6141 20.697 21.2668 20.2158 21.748C19.7345 22.2294 19.0811 22.5 18.4004 22.5C17.7197 22.5 17.0672 22.2293 16.5859 21.748C16.1046 21.2668 15.8341 20.6142 15.834 19.9336C15.834 19.2529 16.1046 18.5995 16.5859 18.1182C17.0672 17.6371 17.7198 17.3663 18.4004 17.3662ZM7.66699 17.9004C7.12791 17.9004 6.61079 18.1141 6.22949 18.4951C5.84816 18.8764 5.63379 19.3943 5.63379 19.9336C5.63386 20.4728 5.84822 20.9898 6.22949 21.3711C6.61081 21.7523 7.1278 21.9668 7.66699 21.9668C8.2062 21.9668 8.72319 21.7523 9.10449 21.3711C9.48576 20.9898 9.70013 20.4728 9.7002 19.9336C9.7002 19.3943 9.48583 18.8764 9.10449 18.4951C8.72321 18.114 8.20609 17.9004 7.66699 17.9004ZM18.4004 17.9004C17.8613 17.9004 17.3442 18.114 16.9629 18.4951C16.5816 18.8764 16.3672 19.3943 16.3672 19.9336C16.3673 20.4728 16.5816 20.9898 16.9629 21.3711C17.3442 21.7523 17.8612 21.9667 18.4004 21.9668C18.9397 21.9668 19.4575 21.7524 19.8389 21.3711C20.22 20.9899 20.4335 20.4727 20.4336 19.9336C20.4336 19.3943 20.2202 18.8764 19.8389 18.4951C19.4575 18.1138 18.9397 17.9004 18.4004 17.9004ZM0.766602 0.5H3.06641C3.12584 0.500016 3.18362 0.520083 3.23047 0.556641C3.2538 0.574874 3.2741 0.596621 3.29004 0.621094L3.3252 0.702148L3.94629 3.1875L4.04102 3.56641H22.2334C22.2725 3.56644 22.3113 3.57519 22.3467 3.5918C22.3821 3.60845 22.4135 3.63298 22.4385 3.66309C22.4635 3.69322 22.4814 3.7287 22.4912 3.7666C22.501 3.80432 22.5022 3.84355 22.4951 3.88184L20.1953 16.1484V16.1494C20.1838 16.2103 20.1512 16.265 20.1035 16.3047C20.0676 16.3345 20.0249 16.3543 19.9795 16.3623L19.9336 16.3662H6.13379C6.07168 16.3661 6.01163 16.3444 5.96387 16.3047C5.91622 16.265 5.88355 16.2103 5.87207 16.1494V16.1484L3.57324 3.90527L3.57129 3.89062L3.56738 3.87695L2.9541 1.41211L2.85938 1.0332H0.766602C0.695898 1.03318 0.628117 1.00507 0.578125 0.955078C0.528152 0.905073 0.5 0.837291 0.5 0.766602C0.500017 0.695906 0.528128 0.628121 0.578125 0.578125C0.628117 0.528136 0.695899 0.500024 0.766602 0.5ZM4.26465 4.69238L6.27832 15.4258L6.35449 15.833H19.7129L19.7891 15.4258L21.8027 4.69238L21.9131 4.09961H4.1543L4.26465 4.69238Z" fill="black" stroke="black"/>
</svg>
