<svg width="32" height="32" viewBox="0 0 32 32" fill="none" xmlns="http://www.w3.org/2000/svg">
<rect y="0.5" width="32" height="31" rx="4" fill="#2E2E2E" fill-opacity="0.4"/>
<path d="M14.4154 20.7497C15.8206 20.7494 17.1853 20.279 18.2922 19.4133L21.7723 22.8935L22.8917 21.7741L19.4116 18.2939C20.2777 17.1869 20.7484 15.8219 20.7487 14.4163C20.7487 10.9243 17.9074 8.08301 14.4154 8.08301C10.9233 8.08301 8.08203 10.9243 8.08203 14.4163C8.08203 17.9084 10.9233 20.7497 14.4154 20.7497ZM14.4154 9.66634C17.035 9.66634 19.1654 11.7967 19.1654 14.4163C19.1654 17.036 17.035 19.1663 14.4154 19.1663C11.7957 19.1663 9.66536 17.036 9.66536 14.4163C9.66536 11.7967 11.7957 9.66634 14.4154 9.66634Z" fill="white"/>
</svg>
