<svg width="21" height="19" viewBox="0 0 21 19" fill="none" xmlns="http://www.w3.org/2000/svg">
<path d="M10.5004 2.05852C9.40786 1.05629 7.97776 0.500047 6.49349 0.5C5.70789 0.500816 4.9302 0.656612 4.20518 0.958421C3.48016 1.26023 2.82213 1.7021 2.26896 2.25859C-0.0904876 4.62237 -0.0894848 8.31961 2.27096 10.6734L9.62304 18.0078C9.79351 18.3069 10.1224 18.5 10.5004 18.5C10.6557 18.4985 10.8084 18.4607 10.9463 18.3896C11.0842 18.3186 11.2035 18.2163 11.2946 18.0909L18.7299 10.6734C21.0904 8.31861 21.0904 4.62237 18.7279 2.25458C18.175 1.69912 17.5175 1.25815 16.7932 0.957036C16.0689 0.655922 15.2921 0.5006 14.5074 0.5C13.0232 0.500242 11.5931 1.05646 10.5004 2.05852Z" fill="#7AC143"/>
</svg>
