<svg width="23" height="23" viewBox="0 0 23 23" fill="none" xmlns="http://www.w3.org/2000/svg">
<path d="M11.5002 4.21366L10.4695 3.0836C8.05009 0.43094 3.61383 1.34634 2.01241 4.68133C1.26057 6.24992 1.09094 8.51465 2.4638 11.405C3.78634 14.188 6.5378 17.5214 11.5002 21.1523C16.4626 17.5214 19.2126 14.188 20.5366 11.405C21.9095 8.51311 21.7413 6.24992 20.988 4.68133C19.3866 1.34634 14.9503 0.429406 12.5309 3.08206L11.5002 4.21366ZM11.5002 23C-10.5417 7.46432 4.71355 -4.66124 11.2472 1.75267C11.3334 1.837 11.4183 1.9244 11.5002 2.01487C11.5813 1.92448 11.6657 1.83753 11.7532 1.7542C18.2854 -4.66431 33.5421 7.46278 11.5002 23Z" fill="black"/>
</svg>
