<svg width="20" height="19" viewBox="0 0 20 19" fill="none" xmlns="http://www.w3.org/2000/svg">
<path d="M10.0004 2.05852C8.90786 1.05629 7.47776 0.500047 5.99349 0.5C5.20789 0.500816 4.4302 0.656612 3.70518 0.958421C2.98016 1.26023 2.32213 1.7021 1.76896 2.25859C-0.590488 4.62237 -0.589485 8.31961 1.77096 10.6734L9.12304 18.0078C9.29351 18.3069 9.62241 18.5 10.0004 18.5C10.1557 18.4985 10.3084 18.4607 10.4463 18.3896C10.5842 18.3186 10.7035 18.2163 10.7946 18.0909L18.2299 10.6734C20.5904 8.31861 20.5904 4.62237 18.2279 2.25458C17.675 1.69912 17.0175 1.25815 16.2932 0.957036C15.5689 0.655922 14.7921 0.5006 14.0074 0.5C12.5232 0.500242 11.0931 1.05646 10.0004 2.05852ZM16.81 3.66906C18.3773 5.24058 18.3783 7.6954 16.812 9.25892L10.0004 16.0542L3.18883 9.25892C1.62256 7.6954 1.62356 5.24058 3.18683 3.67306C3.94891 2.91681 4.94563 2.50067 5.99349 2.50067C7.04136 2.50067 8.03407 2.91681 8.79013 3.67106L9.2915 4.17122C9.38455 4.2642 9.49505 4.33796 9.6167 4.38829C9.73835 4.43862 9.86875 4.46452 10.0004 4.46452C10.1321 4.46452 10.2625 4.43862 10.3842 4.38829C10.5058 4.33796 10.6163 4.2642 10.7094 4.17122L11.2107 3.67106C12.7269 2.16155 15.2959 2.16556 16.81 3.66906Z" fill="#7AC143"/>
</svg>
