<svg width="16" height="15" viewBox="0 0 16 15" fill="none" xmlns="http://www.w3.org/2000/svg">
<path d="M14.9032 11.7521L11.5851 8.73519C11.4283 8.59263 11.2222 8.5166 11.0103 8.52315C10.7984 8.5297 10.5974 8.61831 10.4497 8.77029L8.49635 10.7791C8.02617 10.6893 7.08093 10.3947 6.10794 9.42412C5.13495 8.45031 4.84027 7.50262 4.75293 7.03572L6.76014 5.08157C6.9123 4.93393 7.00105 4.73287 7.0076 4.52096C7.01415 4.30904 6.93799 4.10289 6.79524 3.94613L3.77912 0.628813C3.63631 0.471564 3.43782 0.376181 3.22582 0.362921C3.01381 0.349661 2.80498 0.419569 2.64369 0.557798L0.872385 2.07688C0.731261 2.21851 0.647029 2.40702 0.635667 2.60663C0.623423 2.8107 0.389969 7.64465 4.13828 11.3946C7.40826 14.6638 11.5043 14.9029 12.6324 14.9029C12.7973 14.9029 12.8985 14.898 12.9254 14.8964C13.125 14.8852 13.3134 14.8006 13.4544 14.6589L14.9726 12.8867C15.1114 12.726 15.1818 12.5173 15.1689 12.3053C15.1559 12.0933 15.0606 11.8948 14.9032 11.7521Z" fill="white"/>
</svg>
