<svg width="17" height="16" viewBox="0 0 17 16" fill="none" xmlns="http://www.w3.org/2000/svg">
<path d="M8.9522 12.14L13.7482 6.65798C14.3142 6.01198 13.8542 4.99998 12.9952 4.99998L3.4032 4.99998C3.21096 4.99981 3.02274 5.05507 2.86109 5.15912C2.69944 5.26317 2.57121 5.41161 2.49175 5.58667C2.4123 5.76173 2.38498 5.95598 2.41309 6.14615C2.44119 6.33633 2.52351 6.51438 2.6502 6.65898L7.4462 12.139C7.54006 12.2464 7.65582 12.3325 7.78569 12.3915C7.91557 12.4504 8.05656 12.481 8.1992 12.481C8.34184 12.481 8.48284 12.4504 8.61271 12.3915C8.74259 12.3325 8.85834 12.2464 8.9522 12.139V12.14Z" fill="white"/>
</svg>
