<svg width="42" height="42" viewBox="0 0 42 42" fill="none" xmlns="http://www.w3.org/2000/svg">
<rect x="0.5" y="-0.5" width="41" height="41" rx="20.5" transform="matrix(1 -8.74228e-08 -8.74228e-08 -1 -4.37114e-08 41)" stroke="white"/>
<path fill-rule="evenodd" clip-rule="evenodd" d="M17.5584 29.0317C17.625 29.0906 17.7041 29.1373 17.7913 29.1691C17.8784 29.201 17.9718 29.2174 18.0661 29.2174C18.1605 29.2174 18.2539 29.201 18.341 29.1691C18.4282 29.1373 18.5073 29.0906 18.5739 29.0317L27.1804 21.4473C27.2472 21.3886 27.3002 21.3188 27.3364 21.2421C27.3725 21.1653 27.3911 21.083 27.3911 20.9998C27.3911 20.9167 27.3725 20.8344 27.3364 20.7576C27.3002 20.6808 27.2472 20.6111 27.1804 20.5523L18.5739 12.9679C18.4393 12.8493 18.2566 12.7826 18.0661 12.7826C17.8757 12.7826 17.693 12.8493 17.5584 12.9679C17.4237 13.0866 17.348 13.2476 17.348 13.4154C17.348 13.5833 17.4237 13.7442 17.5584 13.8629L25.6585 20.9998L17.5584 28.1367C17.4916 28.1954 17.4386 28.2652 17.4024 28.342C17.3663 28.4188 17.3477 28.5011 17.3477 28.5842C17.3477 28.6673 17.3663 28.7497 17.4024 28.8265C17.4386 28.9032 17.4916 28.973 17.5584 29.0317Z" fill="white"/>
</svg>
