<svg width="15" height="15" viewBox="0 0 15 15" fill="none" xmlns="http://www.w3.org/2000/svg">
<path d="M7.68359 13.9272C7.68359 13.9272 12.9336 10.4272 12.9336 6.34387C12.9336 4.95149 12.3805 3.61613 11.3959 2.63156C10.4113 1.647 9.07598 1.09387 7.68359 1.09387C6.29121 1.09387 4.95585 1.647 3.97128 2.63156C2.98672 3.61613 2.43359 4.95149 2.43359 6.34387C2.43359 10.4272 7.68359 13.9272 7.68359 13.9272ZM9.43359 6.34387C9.43359 6.808 9.24922 7.25312 8.92103 7.58131C8.59284 7.9095 8.14772 8.09387 7.68359 8.09387C7.21946 8.09387 6.77435 7.9095 6.44616 7.58131C6.11797 7.25312 5.93359 6.808 5.93359 6.34387C5.93359 5.87974 6.11797 5.43462 6.44616 5.10644C6.77435 4.77825 7.21946 4.59387 7.68359 4.59387C8.14772 4.59387 8.59284 4.77825 8.92103 5.10644C9.24922 5.43462 9.43359 5.87974 9.43359 6.34387Z" fill="#818181"/>
</svg>
