<svg width="14" height="14" viewBox="0 0 14 14" fill="none" xmlns="http://www.w3.org/2000/svg">
<path d="M7 13.4163C7 13.4163 12.25 9.91634 12.25 5.83301C12.25 4.44062 11.6969 3.10526 10.7123 2.1207C9.72775 1.13613 8.39239 0.583008 7 0.583008C5.60761 0.583008 4.27226 1.13613 3.28769 2.1207C2.30312 3.10526 1.75 4.44062 1.75 5.83301C1.75 9.91634 7 13.4163 7 13.4163ZM8.75 5.83301C8.75 6.29714 8.56563 6.74226 8.23744 7.07044C7.90925 7.39863 7.46413 7.58301 7 7.58301C6.53587 7.58301 6.09075 7.39863 5.76256 7.07044C5.43437 6.74226 5.25 6.29714 5.25 5.83301C5.25 5.36888 5.43437 4.92376 5.76256 4.59557C6.09075 4.26738 6.53587 4.08301 7 4.08301C7.46413 4.08301 7.90925 4.26738 8.23744 4.59557C8.56563 4.92376 8.75 5.36888 8.75 5.83301Z" fill="white"/>
</svg>
