<svg width="224" height="59" viewBox="0 0 224 59" fill="none" xmlns="http://www.w3.org/2000/svg">
<path fill-rule="evenodd" clip-rule="evenodd" d="M28 18.7V31.8H22V10.2H27.5V12.3C29.4 11.2 31.4 10.3 33.5 9.79999V15.8C31.6 16.6 29.7 17.5 28 18.7Z" fill="#7FBB27"/>
<path fill-rule="evenodd" clip-rule="evenodd" d="M0 19.1C0 13.8 1.7 9.79999 10 9.79999C12.9 9.79999 15.9 10.1 18.8 10.6V30.8C18.8 39 13.4 41.2 5.2 41.2C3.8 41.2 2.3 41.1 0.9 40.8L1.3 35.5C2.3 35.6 3.4 35.7 4.4 35.7C10.1 35.7 12.5 34.6 12.5 31.4V30.7C10.7 31.5 8.7 31.9 6.7 31.9C2.4 31.9 0.1 28.9 0.1 23.9V19.1H0ZM12.5 25V15.6C11.6 15.5 10.8 15.5 9.9 15.5C7 15.5 6.4 17 6.4 19.1V23.9C6.4 25.4 7 26.3 8.4 26.3C9.8 26.1 11.2 25.7 12.5 25Z" fill="#7FBB27"/>
<path fill-rule="evenodd" clip-rule="evenodd" d="M41.2001 23.6V24.2C41.2001 26.8 42.2001 27.4 45.3001 27.4C47.6001 27.4 49.9001 27.1 52.2001 26.5L53.2001 31.4C50.5001 32.3 47.6001 32.8 44.7001 32.8C37.4001 32.8 34.6001 29.3 34.6001 23.8V18.6C34.6001 13.9 36.8001 9.69998 44.3001 9.69998C51.8001 9.69998 53.4001 14 53.4001 18.9V23.5H41.2001V23.6ZM47.0001 17.7C47.0001 16.2 46.6001 14.9 44.2001 14.9C41.9001 14.9 41.1001 16.2 41.1001 17.7V18.6H47.0001V17.7Z" fill="#7FBB27"/>
<path fill-rule="evenodd" clip-rule="evenodd" d="M61.0999 23.6V24.3C61.0999 26.8 62.0999 27.5 65.1999 27.5C67.4999 27.5 69.7999 27.1 72.0999 26.5L72.9999 31.4C70.2999 32.3 67.3999 32.8 64.4999 32.8C57.0999 32.8 54.3999 29.3 54.3999 23.8V18.6C54.3999 13.9 56.5999 9.69998 64.0999 9.69998C71.5999 9.69998 73.1999 14 73.1999 18.9V23.5H61.0999V23.6ZM66.8999 17.7C66.8999 16.2 66.3999 14.9 64.0999 14.9C61.7999 14.9 60.9999 16.2 60.9999 17.7V18.6H66.7999L66.8999 17.7Z" fill="#7FBB27"/>
<path fill-rule="evenodd" clip-rule="evenodd" d="M87.7999 31.8V17.5C87.7999 16.5 87.3999 15.9 86.2999 15.9C84.6999 16.1 83.0999 16.7 81.6999 17.5V31.7H75.3999V10.2H79.9999L80.6999 11.9C83.3999 10.6 86.2999 9.89999 89.1999 9.79999C92.7999 9.79999 94.0999 12.6 94.0999 16.7V31.8H87.7999Z" fill="#7FBB27"/>
<path fill-rule="evenodd" clip-rule="evenodd" d="M109.8 17.4L105.7 31.8H98.8L95.2 9.79999H100.9L103 22.7L106.7 9.79999H113L116.7 22.7L118.7 9.79999H124.5L120.8 31.8H113.9L109.8 17.4Z" fill="#7FBB27"/>
<path fill-rule="evenodd" clip-rule="evenodd" d="M125.5 23.9V18.8C125.5 14.3 127.6 9.89999 135.4 9.89999C143.2 9.89999 145.4 14.3 145.4 18.8V23.9C145.4 28.4 143.3 32.8 135.4 32.8C127.6 32.8 125.5 28.4 125.5 23.9ZM138.8 24.1V18.6C139 17 137.8 15.5 136.2 15.3C135.9 15.3 135.7 15.3 135.4 15.3C133 15.3 132 16.5 132 18.6V24.1C132 26.2 133.1 27.3 135.4 27.3C137 27.6 138.5 26.5 138.8 24.8C138.9 24.6 138.9 24.3 138.8 24.1Z" fill="#7FBB27"/>
<path fill-rule="evenodd" clip-rule="evenodd" d="M153.5 18.7V31.8H147.5V10.2H153V12.3C154.9 11.2 156.9 10.3 159 9.79999V15.8C157 16.6 155.2 17.5 153.5 18.7Z" fill="#7FBB27"/>
<path fill-rule="evenodd" clip-rule="evenodd" d="M162.1 32.8V1.29999L168.5 0.399994V32.8H162.1ZM174.9 10.5H181.7L176 21.5L182 32.8H175.2L169.4 21.6L174.9 10.5Z" fill="#7FBB27"/>
<path fill-rule="evenodd" clip-rule="evenodd" d="M190.8 32.8C188.2 32.7 185.5 32.3 183 31.5L184 26.6C186.1 27.2 188.3 27.6 190.4 27.6C192.3 27.6 192.6 27.1 192.6 25.7C192.6 24.3 192.6 24.1 189.1 23.2C183.9 21.9 183.4 20.4 183.4 16.3C183.4 11.6 185.2 9.69998 191.6 9.69998C193.8 9.69998 196 9.99998 198.1 10.5L197.5 15.6C195.6 15.2 193.6 15 191.7 15C189.8 15 189.4 15.5 189.4 16.5C189.4 17.9 189.6 18 192.1 18.6C198.2 20 198.6 21.4 198.6 25.8C198.7 30.3 196.9 32.8 190.8 32.8Z" fill="#7FBB27"/>
<path fill-rule="evenodd" clip-rule="evenodd" d="M206 14.5C206 15.9 204.8 17.1 203.4 17.1C202.7 17.1 202 16.8 201.5 16.3C200.8 15.5 200.6 14.4 200.9 13.5C201.5 12.2 203 11.5 204.3 12.1C204.6 12.2 204.9 12.4 205.1 12.7C205.7 13.1 206 13.8 206 14.5ZM201.2 14.5C201.2 15.7 202.2 16.7 203.4 16.7C204.6 16.7 205.6 15.7 205.6 14.5C205.6 13.3 204.6 12.3 203.4 12.3C202.8 12.3 202.2 12.5 201.8 13C201.4 13.4 201.2 13.9 201.2 14.5ZM202.9 16H202.4V13H203.6C204 13 204.4 13.3 204.4 13.7V13.8C204.4 14.2 204.1 14.5 203.8 14.5C204.2 14.5 204.3 14.7 204.3 15.3C204.3 15.6 204.4 15.8 204.4 16.1H204C203.9 15.8 203.9 15.4 203.9 15.1C203.9 15 203.8 14.9 203.7 14.8C203.6 14.7 203.5 14.7 203.4 14.7H203L202.9 16ZM202.9 14.3H203.5C203.6 14.3 203.7 14.2 203.8 14.1C203.9 14 203.9 13.9 203.9 13.8C203.9 13.7 203.9 13.5 203.8 13.4C203.7 13.3 203.6 13.3 203.5 13.3H202.9V14.3Z" fill="#7FBB27"/>
<path d="M16.24 53.08C15.5333 53.08 14.8967 52.9267 14.33 52.62C13.7633 52.3067 13.3167 51.8767 12.99 51.33C12.67 50.7833 12.51 50.1733 12.51 49.5C12.51 48.8267 12.67 48.2167 12.99 47.67C13.3167 47.1233 13.7633 46.6967 14.33 46.39C14.8967 46.0767 15.5333 45.92 16.24 45.92C16.94 45.92 17.5733 46.0767 18.14 46.39C18.7067 46.6967 19.15 47.1233 19.47 47.67C19.79 48.21 19.95 48.82 19.95 49.5C19.95 50.18 19.79 50.7933 19.47 51.34C19.15 51.88 18.7067 52.3067 18.14 52.62C17.5733 52.9267 16.94 53.08 16.24 53.08ZM16.24 52.19C16.7533 52.19 17.2133 52.0733 17.62 51.84C18.0333 51.6067 18.3567 51.2867 18.59 50.88C18.83 50.4667 18.95 50.0067 18.95 49.5C18.95 48.9933 18.83 48.5367 18.59 48.13C18.3567 47.7167 18.0333 47.3933 17.62 47.16C17.2133 46.9267 16.7533 46.81 16.24 46.81C15.7267 46.81 15.26 46.9267 14.84 47.16C14.4267 47.3933 14.1 47.7167 13.86 48.13C13.6267 48.5367 13.51 48.9933 13.51 49.5C13.51 50.0067 13.6267 50.4667 13.86 50.88C14.1 51.2867 14.4267 51.6067 14.84 51.84C15.26 52.0733 15.7267 52.19 16.24 52.19ZM29.2866 49.49C29.2866 50.4167 28.9632 51.1433 28.3166 51.67C27.6699 52.1967 26.7566 52.48 25.5766 52.52V53.26H24.6466V52.52C23.4666 52.4733 22.5499 52.1867 21.8966 51.66C21.2499 51.1333 20.9266 50.41 20.9266 49.49C20.9266 48.5633 21.2499 47.8367 21.8966 47.31C22.5499 46.7833 23.4666 46.4967 24.6466 46.45V45.74H25.5766V46.45C26.7499 46.4967 27.6599 46.7867 28.3066 47.32C28.9599 47.8467 29.2866 48.57 29.2866 49.49ZM25.5766 51.74C26.4699 51.6867 27.1499 51.47 27.6166 51.09C28.0899 50.7033 28.3266 50.1667 28.3266 49.48C28.3266 48.8067 28.0866 48.28 27.6066 47.9C27.1332 47.5133 26.4566 47.2933 25.5766 47.24V51.74ZM21.8966 49.49C21.8966 50.17 22.1332 50.7033 22.6066 51.09C23.0866 51.47 23.7666 51.6867 24.6466 51.74V47.24C23.7532 47.2933 23.0699 47.51 22.5966 47.89C22.1299 48.27 21.8966 48.8033 21.8966 49.49ZM30.8244 46H31.8144V51.4L35.9544 46H36.8744V53H35.8944V47.61L31.7444 53H30.8244V46ZM46.0168 52.13V54.59H45.0868V53H39.0568V46H40.0468V52.13H43.9468V46H44.9368V52.13H46.0168ZM47.3478 46H48.3378V51.4L52.4778 46H53.3978V53H52.4178V47.61L48.2678 53H47.3478V46ZM60.1302 51.25H56.4102L55.6402 53H54.6102L57.7802 46H58.7702L61.9502 53H60.9002L60.1302 51.25ZM59.7802 50.45L58.2702 47.02L56.7602 50.45H59.7802ZM68.9077 46V53H67.9277V46.87H64.8277L64.7577 48.92C64.7243 49.8867 64.6443 50.67 64.5177 51.27C64.3977 51.87 64.2043 52.3233 63.9377 52.63C63.671 52.93 63.311 53.08 62.8577 53.08C62.651 53.08 62.441 53.0533 62.2277 53L62.2977 52.11C62.4043 52.1367 62.511 52.15 62.6177 52.15C62.9043 52.15 63.1343 52.0367 63.3077 51.81C63.481 51.5767 63.611 51.23 63.6977 50.77C63.7843 50.31 63.841 49.7033 63.8677 48.95L63.9777 46H68.9077ZM74.158 48.44C74.9914 48.44 75.628 48.6267 76.068 49C76.5147 49.3733 76.738 49.9233 76.738 50.65C76.738 51.4167 76.498 52 76.018 52.4C75.5447 52.8 74.8647 53 73.978 53H71.088V46H72.078V48.44H74.158ZM73.938 52.21C74.518 52.21 74.9614 52.08 75.268 51.82C75.5814 51.5533 75.738 51.17 75.738 50.67C75.738 49.71 75.138 49.23 73.938 49.23H72.078V52.21H73.938ZM84.237 46V53H83.237V49.88H79.217V53H78.217V46H79.217V49.01H83.237V46H84.237ZM89.4901 48.44C90.3234 48.44 90.9601 48.6267 91.4001 49C91.8467 49.3733 92.0701 49.9233 92.0701 50.65C92.0701 51.4167 91.8301 52 91.3501 52.4C90.8767 52.8 90.1967 53 89.3101 53H86.4201V46H87.4101V48.44H89.4901ZM89.2701 52.21C89.8501 52.21 90.2934 52.08 90.6001 51.82C90.9134 51.5533 91.0701 51.17 91.0701 50.67C91.0701 49.71 90.4701 49.23 89.2701 49.23H87.4101V52.21H89.2701ZM93.1801 46H94.1701V53H93.1801V46ZM96.3517 46H97.3417V51.4L101.482 46H102.402V53H101.422V47.61L97.2717 53H96.3517V46ZM99.3617 45.51C98.8151 45.51 98.3917 45.3933 98.0917 45.16C97.7984 44.92 97.6484 44.58 97.6417 44.14H98.3517C98.3584 44.4 98.4484 44.6033 98.6217 44.75C98.8017 44.89 99.0484 44.96 99.3617 44.96C99.6617 44.96 99.9017 44.89 100.082 44.75C100.268 44.6033 100.365 44.4 100.372 44.14H101.072C101.065 44.5733 100.912 44.91 100.612 45.15C100.318 45.39 99.9017 45.51 99.3617 45.51ZM113.94 52.13V54.53H113.01V53H107.25L107.24 54.53H106.31L106.32 52.13H106.66C107.1 52.1033 107.41 51.7567 107.59 51.09C107.77 50.4167 107.88 49.47 107.92 48.25L107.99 46H112.91V52.13H113.94ZM108.8 48.34C108.766 49.3267 108.686 50.1433 108.56 50.79C108.44 51.4367 108.243 51.8833 107.97 52.13H111.92V46.87H108.85L108.8 48.34ZM115.307 46H116.297V51.4L120.437 46H121.357V53H120.377V47.61L116.227 53H115.307V46ZM129.171 46V53H128.191V46.87H125.091L125.021 48.92C124.988 49.8867 124.908 50.67 124.781 51.27C124.661 51.87 124.468 52.3233 124.201 52.63C123.935 52.93 123.575 53.08 123.121 53.08C122.915 53.08 122.705 53.0533 122.491 53L122.561 52.11C122.668 52.1367 122.775 52.15 122.881 52.15C123.168 52.15 123.398 52.0367 123.571 51.81C123.745 51.5767 123.875 51.23 123.961 50.77C124.048 50.31 124.105 49.7033 124.131 48.95L124.241 46H129.171ZM136.432 52.13V53H131.352V46H136.292V46.87H132.352V49.02H135.862V49.87H132.352V52.13H136.432ZM140.732 46C141.639 46 142.352 46.2167 142.872 46.65C143.392 47.0833 143.652 47.68 143.652 48.44C143.652 49.2 143.392 49.7967 142.872 50.23C142.352 50.6633 141.639 50.88 140.732 50.88H139.002V53H138.002V46H140.732ZM140.702 50.01C141.335 50.01 141.819 49.8767 142.152 49.61C142.485 49.3367 142.652 48.9467 142.652 48.44C142.652 47.9333 142.485 47.5467 142.152 47.28C141.819 47.0067 141.335 46.87 140.702 46.87H139.002V50.01H140.702ZM152.186 49.37C152.66 49.4833 153.016 49.6867 153.256 49.98C153.503 50.2667 153.626 50.6367 153.626 51.09C153.626 51.6967 153.403 52.1667 152.956 52.5C152.516 52.8333 151.873 53 151.026 53H147.826V46H150.836C151.603 46 152.2 46.1567 152.626 46.47C153.06 46.7767 153.276 47.22 153.276 47.8C153.276 48.18 153.18 48.5033 152.986 48.77C152.8 49.0367 152.533 49.2367 152.186 49.37ZM148.816 49.08H150.766C151.253 49.08 151.623 48.9833 151.876 48.79C152.136 48.5967 152.266 48.3133 152.266 47.94C152.266 47.5667 152.136 47.2833 151.876 47.09C151.616 46.89 151.246 46.79 150.766 46.79H148.816V49.08ZM151.006 52.21C152.08 52.21 152.616 51.81 152.616 51.01C152.616 50.61 152.48 50.3167 152.206 50.13C151.94 49.9367 151.54 49.84 151.006 49.84H148.816V52.21H151.006ZM160.713 46C161.619 46 162.333 46.2167 162.853 46.65C163.373 47.0833 163.633 47.68 163.633 48.44C163.633 49.2 163.373 49.7967 162.853 50.23C162.333 50.6633 161.619 50.88 160.713 50.88H158.983V53H157.983V46H160.713ZM160.683 50.01C161.316 50.01 161.799 49.8767 162.133 49.61C162.466 49.3367 162.633 48.9467 162.633 48.44C162.633 47.9333 162.466 47.5467 162.133 47.28C161.799 47.0067 161.316 46.87 160.683 46.87H158.983V50.01H160.683ZM168.271 53.08C167.565 53.08 166.928 52.9267 166.361 52.62C165.795 52.3067 165.348 51.8767 165.021 51.33C164.701 50.7833 164.541 50.1733 164.541 49.5C164.541 48.8267 164.701 48.2167 165.021 47.67C165.348 47.1233 165.795 46.6967 166.361 46.39C166.928 46.0767 167.565 45.92 168.271 45.92C168.971 45.92 169.605 46.0767 170.171 46.39C170.738 46.6967 171.181 47.1233 171.501 47.67C171.821 48.21 171.981 48.82 171.981 49.5C171.981 50.18 171.821 50.7933 171.501 51.34C171.181 51.88 170.738 52.3067 170.171 52.62C169.605 52.9267 168.971 53.08 168.271 53.08ZM168.271 52.19C168.785 52.19 169.245 52.0733 169.651 51.84C170.065 51.6067 170.388 51.2867 170.621 50.88C170.861 50.4667 170.981 50.0067 170.981 49.5C170.981 48.9933 170.861 48.5367 170.621 48.13C170.388 47.7167 170.065 47.3933 169.651 47.16C169.245 46.9267 168.785 46.81 168.271 46.81C167.758 46.81 167.291 46.9267 166.871 47.16C166.458 47.3933 166.131 47.7167 165.891 48.13C165.658 48.5367 165.541 48.9933 165.541 49.5C165.541 50.0067 165.658 50.4667 165.891 50.88C166.131 51.2867 166.458 51.6067 166.871 51.84C167.291 52.0733 167.758 52.19 168.271 52.19ZM176.728 53.08C176.028 53.08 175.394 52.9267 174.828 52.62C174.268 52.3067 173.828 51.88 173.508 51.34C173.188 50.7933 173.028 50.18 173.028 49.5C173.028 48.82 173.188 48.21 173.508 47.67C173.828 47.1233 174.271 46.6967 174.838 46.39C175.404 46.0767 176.038 45.92 176.738 45.92C177.284 45.92 177.784 46.0133 178.238 46.2C178.691 46.38 179.078 46.65 179.398 47.01L178.748 47.64C178.221 47.0867 177.564 46.81 176.778 46.81C176.258 46.81 175.788 46.9267 175.368 47.16C174.948 47.3933 174.618 47.7167 174.378 48.13C174.144 48.5367 174.028 48.9933 174.028 49.5C174.028 50.0067 174.144 50.4667 174.378 50.88C174.618 51.2867 174.948 51.6067 175.368 51.84C175.788 52.0733 176.258 52.19 176.778 52.19C177.558 52.19 178.214 51.91 178.748 51.35L179.398 51.98C179.078 52.34 178.688 52.6133 178.228 52.8C177.774 52.9867 177.274 53.08 176.728 53.08ZM183.759 53.08C183.059 53.08 182.426 52.9267 181.859 52.62C181.299 52.3067 180.859 51.88 180.539 51.34C180.219 50.7933 180.059 50.18 180.059 49.5C180.059 48.82 180.219 48.21 180.539 47.67C180.859 47.1233 181.302 46.6967 181.869 46.39C182.436 46.0767 183.069 45.92 183.769 45.92C184.316 45.92 184.816 46.0133 185.269 46.2C185.722 46.38 186.109 46.65 186.429 47.01L185.779 47.64C185.252 47.0867 184.596 46.81 183.809 46.81C183.289 46.81 182.819 46.9267 182.399 47.16C181.979 47.3933 181.649 47.7167 181.409 48.13C181.176 48.5367 181.059 48.9933 181.059 49.5C181.059 50.0067 181.176 50.4667 181.409 50.88C181.649 51.2867 181.979 51.6067 182.399 51.84C182.819 52.0733 183.289 52.19 183.809 52.19C184.589 52.19 185.246 51.91 185.779 51.35L186.429 51.98C186.109 52.34 185.719 52.6133 185.259 52.8C184.806 52.9867 184.306 53.08 183.759 53.08ZM187.807 46H188.797V51.4L192.937 46H193.857V53H192.877V47.61L188.727 53H187.807V46ZM196.039 46H197.029V51.4L201.169 46H202.089V53H201.109V47.61L196.959 53H196.039V46Z" fill="black"/>
</svg>
