<svg width="162" height="36" viewBox="0 0 162 36" fill="none" xmlns="http://www.w3.org/2000/svg">
<path fill-rule="evenodd" clip-rule="evenodd" d="M21.9742 15.031V25.1098H17.2656V8.49134H21.5818V10.107C23.0729 9.26072 24.6424 8.56828 26.2904 8.18359V12.7998C24.7993 13.4153 23.3083 14.1078 21.9742 15.031Z" fill="#7FBB27"/>
<path fill-rule="evenodd" clip-rule="evenodd" d="M0 15.3388C0 11.2611 1.33409 8.18359 7.84761 8.18359C10.1234 8.18359 12.4777 8.41441 14.7535 8.79909V24.3404C14.7535 30.6493 10.5158 32.3419 4.08076 32.3419C2.98209 32.3419 1.80495 32.265 0.706285 32.0342L1.02019 27.9565C1.80495 28.0334 2.66819 28.1104 3.45295 28.1104C7.92609 28.1104 9.80951 27.2641 9.80951 24.8021V24.2635C8.39694 24.879 6.82742 25.1867 5.2579 25.1867C1.88343 25.1867 0.0784761 22.8786 0.0784761 19.0318V15.3388H0ZM9.80951 19.8781V12.646C9.10323 12.569 8.47542 12.569 7.76913 12.569C5.49333 12.569 5.02247 13.7231 5.02247 15.3388V19.0318C5.02247 20.1858 5.49333 20.8783 6.59199 20.8783C7.69066 20.7244 8.78932 20.4166 9.80951 19.8781Z" fill="#7FBB27"/>
<path fill-rule="evenodd" clip-rule="evenodd" d="M32.3318 18.8007V19.2624C32.3318 21.2627 33.1165 21.7244 35.5493 21.7244C37.3542 21.7244 39.1592 21.4935 40.9641 21.0319L41.7489 24.8019C39.63 25.4943 37.3542 25.879 35.0784 25.879C29.3497 25.879 27.1523 23.1862 27.1523 18.9546V14.9539C27.1523 11.3378 28.8788 8.10645 34.7645 8.10645C40.6502 8.10645 41.9059 11.4148 41.9059 15.1847V18.7238H32.3318V18.8007ZM36.8834 14.2614C36.8834 13.1074 36.5695 12.1072 34.6861 12.1072C32.8811 12.1072 32.2533 13.1074 32.2533 14.2614V14.9539H36.8834V14.2614Z" fill="#7FBB27"/>
<path fill-rule="evenodd" clip-rule="evenodd" d="M47.9493 18.8007V19.3393C47.9493 21.2627 48.7341 21.8013 51.1668 21.8013C52.9718 21.8013 54.7767 21.4935 56.5817 21.0319L57.288 24.8019C55.1691 25.4943 52.8933 25.879 50.6175 25.879C44.8103 25.879 42.6914 23.1862 42.6914 18.9546V14.9539C42.6914 11.3378 44.4179 8.10645 50.3036 8.10645C56.1893 8.10645 57.4449 11.4148 57.4449 15.1847V18.7238H47.9493V18.8007ZM52.5009 14.2614C52.5009 13.1074 52.1085 12.1072 50.3036 12.1072C48.4986 12.1072 47.8708 13.1074 47.8708 14.2614V14.9539H52.4224L52.5009 14.2614Z" fill="#7FBB27"/>
<path fill-rule="evenodd" clip-rule="evenodd" d="M68.9029 25.1098V14.1078C68.9029 13.3384 68.589 12.8768 67.7258 12.8768C66.4702 13.0306 65.2145 13.4923 64.1159 14.1078V25.0329H59.1719V8.49134H62.7818L63.3311 9.79928C65.45 8.79909 67.7258 8.26053 70.0016 8.18359C72.8267 8.18359 73.8469 10.3378 73.8469 13.4923V25.1098H68.9029Z" fill="#7FBB27"/>
<path fill-rule="evenodd" clip-rule="evenodd" d="M86.1685 14.0308L82.9509 25.1098H77.5361L74.7109 8.18359H79.1841L80.8321 18.1085L83.7357 8.18359H88.6797L91.5833 18.1085L93.1528 8.18359H97.7044L94.8008 25.1098H89.386L86.1685 14.0308Z" fill="#7FBB27"/>
<path fill-rule="evenodd" clip-rule="evenodd" d="M98.4883 19.031V15.1072C98.4883 11.645 100.136 8.25977 106.257 8.25977C112.379 8.25977 114.105 11.645 114.105 15.1072V19.031C114.105 22.4932 112.457 25.8784 106.257 25.8784C100.136 25.8784 98.4883 22.4932 98.4883 19.031ZM108.926 19.1849V14.9533C109.083 13.7223 108.141 12.5683 106.885 12.4144C106.65 12.4144 106.493 12.4144 106.257 12.4144C104.374 12.4144 103.589 13.3376 103.589 14.9533V19.1849C103.589 20.8006 104.452 21.6469 106.257 21.6469C107.513 21.8777 108.69 21.0314 108.926 19.7234C109.004 19.5696 109.004 19.3387 108.926 19.1849Z" fill="#7FBB27"/>
<path fill-rule="evenodd" clip-rule="evenodd" d="M120.459 15.031V25.1098H115.75V8.49134H120.066V10.107C121.557 9.26072 123.127 8.56828 124.775 8.18359V12.7998C123.205 13.4153 121.793 14.1078 120.459 15.031Z" fill="#7FBB27"/>
<path fill-rule="evenodd" clip-rule="evenodd" d="M127.211 25.8789V1.64361L132.233 0.951172V25.8789H127.211ZM137.256 8.72184H142.592L138.119 17.185L142.828 25.8789H137.491L132.94 17.2619L137.256 8.72184Z" fill="#7FBB27"/>
<path fill-rule="evenodd" clip-rule="evenodd" d="M149.731 25.879C147.69 25.802 145.571 25.4943 143.609 24.8788L144.394 21.1089C146.042 21.5705 147.769 21.8782 149.417 21.8782C150.908 21.8782 151.143 21.4935 151.143 20.4164C151.143 19.3393 151.143 19.1854 148.396 18.493C144.316 17.4928 143.923 16.3387 143.923 13.1843C143.923 9.56825 145.336 8.10645 150.358 8.10645C152.085 8.10645 153.811 8.33726 155.459 8.72194L154.988 12.6457C153.497 12.338 151.928 12.1841 150.437 12.1841C148.946 12.1841 148.632 12.5688 148.632 13.3382C148.632 14.4153 148.789 14.4922 150.751 14.9539C155.538 16.031 155.852 17.1081 155.852 20.4934C155.93 23.9555 154.518 25.879 149.731 25.879Z" fill="#7FBB27"/>
<path fill-rule="evenodd" clip-rule="evenodd" d="M161.663 11.7997C161.663 12.8769 160.721 13.8001 159.623 13.8001C159.073 13.8001 158.524 13.5693 158.131 13.1846C157.582 12.5691 157.425 11.7228 157.661 11.0304C158.131 10.0302 159.309 9.49163 160.329 9.95325C160.564 10.0302 160.8 10.1841 160.957 10.4149C161.427 10.7226 161.663 11.2612 161.663 11.7997ZM157.896 11.7997C157.896 12.723 158.681 13.4924 159.623 13.4924C160.564 13.4924 161.349 12.723 161.349 11.7997C161.349 10.8765 160.564 10.1071 159.623 10.1071C159.152 10.1071 158.681 10.261 158.367 10.6457C158.053 10.9534 157.896 11.3381 157.896 11.7997ZM159.23 12.9538H158.838V10.6457H159.779C160.093 10.6457 160.407 10.8765 160.407 11.1842V11.2612C160.407 11.5689 160.172 11.7997 159.936 11.7997C160.25 11.7997 160.329 11.9536 160.329 12.4152C160.329 12.6461 160.407 12.7999 160.407 13.0307H160.093C160.015 12.7999 160.015 12.4922 160.015 12.2614C160.015 12.1844 159.936 12.1075 159.858 12.0306C159.779 11.9536 159.701 11.9536 159.623 11.9536H159.309L159.23 12.9538ZM159.23 11.6459H159.701C159.779 11.6459 159.858 11.5689 159.936 11.492C160.015 11.4151 160.015 11.3381 160.015 11.2612C160.015 11.1842 160.015 11.0304 159.936 10.9534C159.858 10.8765 159.779 10.8765 159.701 10.8765H159.23V11.6459Z" fill="#7FBB27"/>
<path d="M20.4016 34.5406C19.4861 34.5406 18.7885 34.2245 18.3089 33.5923C17.8838 33.0528 17.6659 32.3471 17.655 31.4751C17.655 30.6086 17.8729 29.9001 18.3089 29.3497C18.5487 29.0391 18.8512 28.8047 19.2163 28.6467C19.5869 28.4832 19.982 28.4042 20.4016 28.4096C21.3117 28.4205 22.012 28.7339 22.5025 29.3497C22.9221 29.8838 23.1374 30.5923 23.1483 31.4751C23.1483 32.3362 22.933 33.0419 22.5025 33.5923C22.0066 34.2245 21.3063 34.5406 20.4016 34.5406ZM20.4016 33.8457C21.0665 33.8457 21.5706 33.6141 21.9139 33.1509C22.2136 32.7585 22.369 32.1999 22.3799 31.4751C22.3799 30.7612 22.2245 30.2026 21.9139 29.7993C21.745 29.5704 21.527 29.396 21.2599 29.2761C20.9929 29.1563 20.7068 29.099 20.4016 29.1045C19.7367 29.1045 19.2326 29.3361 18.8893 29.7993C18.5896 30.1917 18.4343 30.7503 18.4234 31.4751C18.4234 32.189 18.5787 32.7476 18.8893 33.1509C19.0583 33.3798 19.2762 33.5542 19.5433 33.6741C19.8158 33.794 20.1019 33.8512 20.4016 33.8457ZM28.6186 29.456C28.9129 29.6685 29.1336 29.9383 29.2808 30.2653C29.4333 30.5868 29.5042 30.9301 29.4933 31.2953C29.5096 32.0855 29.2154 32.6986 28.6104 33.1346C28.1854 33.4343 27.6649 33.6114 27.0491 33.6659V34.418H26.3297V33.6659C25.6976 33.6114 25.1771 33.4343 24.7684 33.1346C24.4795 32.922 24.2588 32.655 24.1062 32.3334C23.9536 32.0119 23.8801 31.6659 23.8855 31.2953C23.8801 30.9247 23.9509 30.5786 24.0981 30.2571C24.2507 29.9356 24.4714 29.6685 24.7602 29.456C25.1907 29.1508 25.7139 28.971 26.3297 28.9165V28.5323H27.0491V28.9083C27.6867 28.9737 28.2099 29.1563 28.6186 29.456ZM25.1935 32.5133C25.5041 32.7422 25.8828 32.8784 26.3297 32.922V29.6767C25.8556 29.7312 25.4796 29.8674 25.2016 30.0854C24.842 30.3579 24.6621 30.7612 24.6621 31.2953C24.6621 31.8348 24.8392 32.2408 25.1935 32.5133ZM28.1854 32.5133C28.545 32.2354 28.7249 31.8293 28.7249 31.2953C28.7249 30.7667 28.545 30.3634 28.1854 30.0854C27.8965 29.8674 27.5178 29.7312 27.0491 29.6767V32.9302C27.5178 32.8757 27.8965 32.7367 28.1854 32.5133ZM34.2448 28.5323H34.9805V34.418H34.2448V29.8157L31.1793 34.418H30.4436V28.5323H31.1793V33.1264L34.2448 28.5323ZM41.0675 33.7231H41.7051V35.1128H40.9776V34.418H36.1219V28.5323H36.8494V33.7231H40.34V28.5323H41.0675V33.7231ZM46.4147 28.5323H47.1504V34.418H46.4147V29.8157L43.3492 34.418H42.6135V28.5323H43.3492V33.1264L46.4147 28.5323ZM52.0848 34.418L51.7088 33.3144H49.0112L48.6433 34.418H47.8831L49.8531 28.5323H50.8668L52.8369 34.418H52.0848ZM49.24 32.6277H51.4799L50.3518 29.3007L49.24 32.6277ZM58.5315 28.5323V34.418H57.804V29.2189H55.4742L55.0818 32.546C55.011 33.1782 54.8529 33.6577 54.6077 33.9847C54.3679 34.3117 53.981 34.4561 53.4469 34.418V33.7558C53.7684 33.7504 53.9946 33.6414 54.1254 33.4288C54.2616 33.2109 54.357 32.8702 54.4115 32.407L54.8775 28.5323H58.5315ZM63.6207 31.3934C63.9095 31.7367 64.0539 32.1264 64.0539 32.5623C64.043 33.0256 63.885 33.4288 63.5798 33.7722C63.3727 34.0229 63.1111 34.2027 62.7951 34.3117C62.5825 34.3825 62.3782 34.418 62.182 34.418H59.6724V28.5323H60.3999V30.7067H62.182C62.4599 30.7067 62.7269 30.7694 62.9831 30.8947C63.2447 31.0146 63.4572 31.1808 63.6207 31.3934ZM63.3019 32.5623C63.3073 32.3007 63.2229 32.0582 63.0485 31.8348C62.8141 31.546 62.5253 31.4015 62.182 31.4015H60.3999V33.7231H62.182C62.4871 33.7231 62.7542 33.6032 62.9831 33.3634C63.1847 33.1509 63.291 32.8839 63.3019 32.5623ZM68.694 28.5323H69.4216V34.418H68.694V32.2435H65.5959V34.418H64.8683V28.5323H65.5959V31.5569H68.694V28.5323ZM73.0721 30.7067C73.35 30.7067 73.617 30.7694 73.8732 30.8947C74.1347 31.0146 74.3473 31.1808 74.5108 31.3934C74.7996 31.7367 74.944 32.1264 74.944 32.5623C74.9331 33.0256 74.7751 33.4288 74.4699 33.7722C74.2628 34.0229 74.0012 34.2027 73.6851 34.3117C73.4726 34.3825 73.2682 34.418 73.0721 34.418H70.5625V28.5323H71.29V30.7067H73.0721ZM75.8432 28.5323H76.5708V34.418H75.8432V28.5323ZM74.192 32.5623C74.1974 32.3007 74.113 32.0582 73.9386 31.8348C73.7042 31.546 73.4154 31.4015 73.0721 31.4015H71.29V33.7231H73.0721C73.3772 33.7231 73.6443 33.6032 73.8732 33.3634C74.0748 33.1509 74.1811 32.8839 74.192 32.5623ZM80.7398 26.9219H81.3284C81.3284 27.2325 81.2194 27.4968 81.0014 27.7148C80.7834 27.9328 80.5218 28.0418 80.2166 28.0418C79.906 28.0418 79.6417 27.9328 79.4237 27.7148C79.2057 27.4968 79.0967 27.2325 79.0967 26.9219H79.6853C79.6853 27.069 79.7371 27.1944 79.8406 27.2979C79.9442 27.4014 80.0695 27.4532 80.2166 27.4532C80.3638 27.4532 80.4864 27.4014 80.5845 27.2979C80.688 27.1944 80.7398 27.069 80.7398 26.9219ZM81.6063 28.5323H82.342V34.418H81.6063V29.8157L78.5409 34.418H77.8051V28.5323H78.5409V33.1264L81.6063 28.5323ZM90.0992 33.7231H90.5652V35.1128H89.8703V34.418H85.6441V35.1128H84.9492V33.7231C85.5214 33.7231 85.873 33.1564 86.0037 32.0228L86.4125 28.5323H90.0992V33.7231ZM89.4125 33.7231V29.2189H87.0337L86.6904 32.1046C86.6032 32.8893 86.4152 33.4288 86.1264 33.7231H89.4125ZM95.355 28.5323H96.0907V34.418H95.355V29.8157L92.2895 34.418H91.5538V28.5323H92.2895V33.1264L95.355 28.5323ZM101.908 28.5323V34.418H101.18V29.2189H98.8506L98.4583 32.546C98.3874 33.1782 98.2294 33.6577 97.9841 33.9847C97.7443 34.3117 97.3574 34.4561 96.8233 34.418V33.7558C97.1449 33.7504 97.371 33.6414 97.5018 33.4288C97.6381 33.2109 97.7334 32.8702 97.7879 32.407L98.2539 28.5323H101.908ZM106.727 29.2189H103.776V31.1236H106.237V31.8184H103.776V33.7231H106.727V34.418H103.049V28.5323H106.727V29.2189ZM111.777 29.1699C112.082 29.5132 112.24 29.9192 112.251 30.3879C112.251 30.8184 112.106 31.2081 111.818 31.5569C111.654 31.764 111.444 31.9302 111.188 32.0555C110.932 32.1754 110.662 32.2354 110.379 32.2354H108.597V34.418H107.869V28.5323H110.379C110.597 28.5323 110.801 28.5677 110.992 28.6385C111.303 28.7421 111.564 28.9192 111.777 29.1699ZM111.245 31.1154C111.425 30.892 111.51 30.6495 111.499 30.3879C111.488 30.0664 111.382 29.7993 111.18 29.5868C110.951 29.347 110.684 29.2271 110.379 29.2271H108.597V31.5487H110.379C110.722 31.5487 111.011 31.4043 111.245 31.1154ZM118.733 31.6958C118.973 32.0065 119.084 32.3552 119.068 32.7422C119.057 33.1237 118.934 33.4615 118.7 33.7558C118.477 34.0338 118.182 34.2272 117.817 34.3362C117.616 34.3907 117.362 34.418 117.057 34.418H114.866V28.5323H116.943C117.286 28.5323 117.515 28.5541 117.629 28.5977C117.962 28.6849 118.231 28.862 118.438 29.129C118.656 29.3851 118.774 29.6958 118.79 30.0609C118.812 30.3988 118.706 30.7176 118.471 31.0173C118.433 31.0773 118.365 31.1563 118.267 31.2544C118.447 31.3688 118.602 31.516 118.733 31.6958ZM117.155 29.2189H115.602V30.9846H117.155C117.28 30.9846 117.411 30.9519 117.547 30.8865C117.684 30.8157 117.79 30.7258 117.866 30.6168C117.986 30.4478 118.046 30.2626 118.046 30.0609C118.035 29.8429 117.956 29.6549 117.809 29.4969C117.64 29.3116 117.422 29.2189 117.155 29.2189ZM118.324 32.7422C118.335 32.486 118.259 32.2599 118.095 32.0637C117.899 31.8021 117.632 31.6713 117.294 31.6713H115.602V33.7231H117.049C117.305 33.7231 117.504 33.7068 117.646 33.6741C117.787 33.6359 117.921 33.5487 118.046 33.4125C118.231 33.2163 118.324 32.9929 118.324 32.7422ZM125.633 29.1699C125.938 29.5132 126.096 29.9192 126.107 30.3879C126.107 30.8184 125.962 31.2081 125.674 31.5569C125.51 31.764 125.3 31.9302 125.044 32.0555C124.788 32.1754 124.518 32.2354 124.235 32.2354H122.453V34.418H121.725V28.5323H124.235C124.453 28.5323 124.657 28.5677 124.848 28.6385C125.159 28.7421 125.42 28.9192 125.633 29.1699ZM125.101 31.1154C125.281 30.892 125.366 30.6495 125.355 30.3879C125.344 30.0664 125.238 29.7993 125.036 29.5868C124.807 29.347 124.54 29.2271 124.235 29.2271H122.453V31.5487H124.235C124.578 31.5487 124.867 31.4043 125.101 31.1154ZM129.463 34.5406C128.548 34.5406 127.85 34.2245 127.371 33.5923C126.946 33.0528 126.728 32.3471 126.717 31.4751C126.717 30.6086 126.935 29.9001 127.371 29.3497C127.611 29.0391 127.913 28.8047 128.278 28.6467C128.649 28.4832 129.044 28.4042 129.463 28.4096C130.374 28.4205 131.074 28.7339 131.564 29.3497C131.984 29.8838 132.199 30.5923 132.21 31.4751C132.21 32.3362 131.995 33.0419 131.564 33.5923C131.068 34.2245 130.368 34.5406 129.463 34.5406ZM129.463 33.8457C130.128 33.8457 130.632 33.6141 130.976 33.1509C131.275 32.7585 131.431 32.1999 131.442 31.4751C131.442 30.7612 131.286 30.2026 130.976 29.7993C130.807 29.5704 130.589 29.396 130.322 29.2761C130.055 29.1563 129.769 29.099 129.463 29.1045C128.799 29.1045 128.294 29.3361 127.951 29.7993C127.651 30.1917 127.496 30.7503 127.485 31.4751C127.485 32.189 127.641 32.7476 127.951 33.1509C128.12 33.3798 128.338 33.5542 128.605 33.6741C128.878 33.794 129.164 33.8512 129.463 33.8457ZM137.541 32.4642L138.269 32.6768C138.16 33.0256 138.002 33.3307 137.795 33.5923C137.299 34.2245 136.601 34.5406 135.702 34.5406C134.808 34.5406 134.111 34.2245 133.61 33.5923C133.157 33.0256 132.936 32.3198 132.947 31.4751C132.958 30.5977 133.179 29.8892 133.61 29.3497C134.089 28.723 134.787 28.4096 135.702 28.4096C136.607 28.4096 137.304 28.723 137.795 29.3497C138.035 29.6604 138.209 30.02 138.318 30.4288L137.566 30.5514C137.484 30.2408 137.367 29.9901 137.215 29.7993C136.871 29.3361 136.367 29.1045 135.702 29.1045C135.402 29.099 135.116 29.1563 134.844 29.2761C134.577 29.396 134.359 29.5704 134.19 29.7993C133.89 30.1917 133.735 30.7503 133.724 31.4751C133.735 32.1945 133.89 32.7531 134.19 33.1509C134.533 33.6141 135.037 33.8457 135.702 33.8457C136.002 33.8512 136.285 33.794 136.552 33.6741C136.825 33.5542 137.046 33.3798 137.215 33.1509C137.367 32.9384 137.476 32.7095 137.541 32.4642ZM143.649 32.4642L144.377 32.6768C144.268 33.0256 144.11 33.3307 143.903 33.5923C143.407 34.2245 142.709 34.5406 141.81 34.5406C140.916 34.5406 140.219 34.2245 139.717 33.5923C139.265 33.0256 139.044 32.3198 139.055 31.4751C139.066 30.5977 139.287 29.8892 139.717 29.3497C140.197 28.723 140.895 28.4096 141.81 28.4096C142.715 28.4096 143.412 28.723 143.903 29.3497C144.143 29.6604 144.317 30.02 144.426 30.4288L143.674 30.5514C143.592 30.2408 143.475 29.9901 143.322 29.7993C142.979 29.3361 142.475 29.1045 141.81 29.1045C141.51 29.099 141.224 29.1563 140.952 29.2761C140.685 29.396 140.467 29.5704 140.298 29.7993C139.998 30.1917 139.843 30.7503 139.832 31.4751C139.843 32.1945 139.998 32.7531 140.298 33.1509C140.641 33.6141 141.145 33.8457 141.81 33.8457C142.11 33.8512 142.393 33.794 142.66 33.6741C142.933 33.5542 143.154 33.3798 143.322 33.1509C143.475 32.9384 143.584 32.7095 143.649 32.4642ZM149.177 28.5323H149.913V34.418H149.177V29.8157L146.112 34.418H145.376V28.5323H146.112V33.1264L149.177 28.5323ZM154.863 28.5323H155.599V34.418H154.863V29.8157L151.798 34.418H151.062V28.5323H151.798V33.1264L154.863 28.5323Z" fill="white"/>
</svg>
