<svg width="42" height="42" viewBox="0 0 42 42" fill="none" xmlns="http://www.w3.org/2000/svg">
<rect width="42" height="42" rx="21" transform="matrix(1 -8.74228e-08 -8.74228e-08 -1 0 42)" fill="#AFDA8E"/>
<path fill-rule="evenodd" clip-rule="evenodd" d="M17.5584 29.0316C17.625 29.0905 17.7041 29.1372 17.7913 29.169C17.8784 29.2009 17.9718 29.2173 18.0661 29.2173C18.1605 29.2173 18.2539 29.2009 18.341 29.169C18.4282 29.1372 18.5073 29.0905 18.5739 29.0316L27.1804 21.4472C27.2472 21.3885 27.3002 21.3188 27.3364 21.242C27.3725 21.1652 27.3911 21.0829 27.3911 20.9997C27.3911 20.9166 27.3725 20.8343 27.3364 20.7575C27.3002 20.6807 27.2472 20.611 27.1804 20.5522L18.5739 12.9679C18.4393 12.8492 18.2566 12.7825 18.0661 12.7825C17.8757 12.7825 17.693 12.8492 17.5584 12.9679C17.4237 13.0865 17.348 13.2475 17.348 13.4153C17.348 13.5832 17.4237 13.7441 17.5584 13.8628L25.6585 20.9997L17.5584 28.1366C17.4916 28.1954 17.4386 28.2651 17.4024 28.3419C17.3663 28.4187 17.3477 28.501 17.3477 28.5841C17.3477 28.6673 17.3663 28.7496 17.4024 28.8264C17.4386 28.9031 17.4916 28.9729 17.5584 29.0316Z" fill="white"/>
</svg>
